HIERARCHY
ROOT root
{
	OFFSET	0	13.1	24.9
	CHANNELS 6  Xposition Yposition Zposition Xrotation Yrotation Zrotation
	JOINT spine_1
	{
		OFFSET	0	9.99999	0
		CHANNELS 3  Xrotation Yrotation Zrotation
		JOINT spine_2
		{
			OFFSET	0	112	-10
			CHANNELS 3  Xrotation Yrotation Zrotation
			JOINT spine_3
			{
				OFFSET	0	206.5	19.3
				CHANNELS 3  Xrotation Yrotation Zrotation
				JOINT spine_4
				{
					OFFSET	0	110.4	14.6
					CHANNELS 3  Xrotation Yrotation Zrotation
					JOINT neck_1
					{
						OFFSET	0	71.8	-50.3
						CHANNELS 3  Xrotation Yrotation Zrotation
						JOINT neck_2
						{
							OFFSET	0	86.2	-25.8
							CHANNELS 3  Xrotation Yrotation Zrotation
							JOINT head_ee
							{
								OFFSET	0	179.8	-8.7
								CHANNELS 3  Xrotation Yrotation Zrotation
								End Site
								{
									OFFSET	1	0	0
								}
							}
						}
					}
					JOINT left_clavicle
					{
						OFFSET	-43.2	22.4	-70.8
						CHANNELS 3  Xrotation Yrotation Zrotation
						JOINT left_shoulder
						{
							OFFSET	-93.9	-5.79999	48.7
							CHANNELS 3  Xrotation Yrotation Zrotation
							JOINT left_elbow
							{
								OFFSET	-291.4	-30.8	15.2
								CHANNELS 3  Xrotation Yrotation Zrotation
								JOINT left_lowarm_twist
								{
									OFFSET	-110.7	-3.89999	13.6
									CHANNELS 3  Xrotation Yrotation Zrotation
									JOINT left_hand
									{
										OFFSET	-110.7	-3.89999	13.6
										CHANNELS 3  Xrotation Yrotation Zrotation
										JOINT left_ee
										{
											OFFSET	-80.8	-5.10001	12.1
											CHANNELS 3  Xrotation Yrotation Zrotation
											End Site
											{
												OFFSET	1	0	0
											}
										}
									}
								}
							}
						}
					}
					JOINT right_clavicle
					{
						OFFSET	43.2	22.4	-70.8
						CHANNELS 3  Xrotation Yrotation Zrotation
						JOINT right_shoulder
						{
							OFFSET	93.9	-5.79999	48.7
							CHANNELS 3  Xrotation Yrotation Zrotation
							JOINT right_elbow
							{
								OFFSET	291.4	-30.8	15.2
								CHANNELS 3  Xrotation Yrotation Zrotation
								JOINT right_lowarm_twist
								{
									OFFSET	110.7	-3.89999	13.6
									CHANNELS 3  Xrotation Yrotation Zrotation
									JOINT right_hand
									{
										OFFSET	110.7	-3.89999	13.6
										CHANNELS 3  Xrotation Yrotation Zrotation
										JOINT right_ee
										{
											OFFSET	80.8	-5.10001	12.1
											CHANNELS 3  Xrotation Yrotation Zrotation
											End Site
											{
												OFFSET	1	0	0
											}
										}
									}
								}
							}
						}
					}
				}
			}
		}
	}
	JOINT left_hip
	{
		OFFSET	-82.8	-127.5	0.300001
		CHANNELS 3  Xrotation Yrotation Zrotation
		JOINT left_knee
		{
			OFFSET	-28.2	-396.7	2.2
			CHANNELS 3  Xrotation Yrotation Zrotation
			JOINT left_ankle
			{
				OFFSET	-11.7	-411.3	35.4
				CHANNELS 3  Xrotation Yrotation Zrotation
				JOINT left_toes
				{
					OFFSET	0	-60	-88.6
					CHANNELS 3  Xrotation Yrotation Zrotation
					JOINT left_foot_ee
					{
						OFFSET	-22.5	-16.5	-42.2
						CHANNELS 3  Xrotation Yrotation Zrotation
						End Site
						{
							OFFSET	1	0	0
						}
					}
				}
			}
		}
	}
	JOINT right_hip
	{
		OFFSET	82.8	-127.5	0.300001
		CHANNELS 3  Xrotation Yrotation Zrotation
		JOINT right_knee
		{
			OFFSET	28.2	-396.7	2.2
			CHANNELS 3  Xrotation Yrotation Zrotation
			JOINT right_ankle
			{
				OFFSET	11.7	-411.3	35.4
				CHANNELS 3  Xrotation Yrotation Zrotation
				JOINT right_toes
				{
					OFFSET	0	-60	-88.6
					CHANNELS 3  Xrotation Yrotation Zrotation
					JOINT right_foot_ee
					{
						OFFSET	22.5	-16.5	-42.2
						CHANNELS 3  Xrotation Yrotation Zrotation
						End Site
						{
							OFFSET	1	0	0
						}
					}
				}
			}
		}
	}
}
MOTION
Frames: 8
Frame Time: 0.02
1926.62 710.352 -1577.57 -3.77203 70.2747 -0.0107964 -1.68724 0.996415 3.51116 -1.68071 0.771119 3.56735 -1.62497 -0.0989735 3.64829 -1.64322 0.478064 3.61823 -3.15208 11.9707 -1.98441 -2.88802 23.3288 -0.33367 -0.0 0.0 -0.0 -0.412414 17.723 1.44484 -21.5281 4.96736 65.0795 0.505811 -14.0668 0.0624057 -27.4162 -1.72278 3.01851 3.80095 -0.350087 26.201 -0.0 0.0 -0.0 12.6998 21.8226 -25.4055 11.2762 40.2491 -51.369 1.81051 41.8842 -0.692941 -53.4927 4.48636 -4.85299 -5.90686 -5.60751 39.6415 0.0 0.0 0.0 26.0251 4.6422 -7.14329 5.54096 -0.267502 -0.80766 -19.7911 11.8031 2.97941 -15.9809 0.0 0.0 -0.0 0.0 -0.0 -18.4315 29.1619 4.54342 -11.7876 -0.303097 -1.78041 36.6234 -13.8689 4.60341 -14.1893 0.0 0.0 0.0 0.0 0.0 
1907.0 707.709 -1572.98 -5.02508 69.8029 2.3166 -1.68393 0.976359 3.26724 -1.67832 0.766596 3.32266 -1.62707 -0.0452917 3.40955 -1.64296 0.49344 3.374 -2.20894 11.8838 -1.95891 -1.89533 23.0509 -0.504204 -0.0 0.0 -0.0 -0.417469 17.996 1.47109 -21.2112 4.38601 65.8521 0.557578 -15.4407 0.0755899 -26.9599 -1.68275 2.97585 3.92204 -1.23692 26.7424 -0.0 0.0 -0.0 12.7512 21.8446 -25.5228 10.9967 39.6725 -52.4272 1.80852 41.8528 -0.69161 -53.6491 4.50516 -4.86001 -5.90265 -5.86806 39.4115 0.0 0.0 0.0 25.9666 4.34775 -7.01251 5.03936 -0.240076 -0.73563 -19.9443 11.1392 3.00095 -16.0456 0.0 0.0 -0.0 0.0 -0.0 -18.4397 29.0998 4.02452 -11.8337 -0.303559 -1.78748 36.4507 -14.0895 4.58942 -14.0789 0.0 0.0 0.0 0.0 0.0 
1877.82 703.138 -1563.64 -5.85477 70.5042 3.29566 -1.60002 0.80481 3.17634 -1.5946 0.601168 3.22105 -1.5548 -0.177947 3.27179 -1.56957 0.340723 3.25887 -1.13485 12.1847 -1.77548 -0.753478 23.3264 -0.481449 -0.0 0.0 -0.0 -0.617315 18.4685 1.22812 -21.4896 4.06321 66.3614 0.595236 -16.4289 0.0859289 -26.6525 -1.65599 2.94694 4.0194 -1.86674 27.2112 -0.0 0.0 -0.0 12.0888 20.0965 -24.131 8.8397 38.5511 -52.6823 2.02972 45.1509 -0.843945 -54.0748 4.55643 -4.87886 -5.89765 -5.80228 39.4172 0.0 0.0 0.0 25.8561 4.04213 -7.13327 2.12106 -0.0931381 -0.312127 -21.6586 10.464 3.25895 -15.7093 0.0 0.0 -0.0 0.0 -0.0 -19.3783 28.8979 4.30513 -14.2159 -0.319689 -2.1526 36.2972 -14.3039 4.57717 -13.6425 0.0 0.0 0.0 0.0 0.0 
1848.49 715.117 -1560.0 -4.85625 70.6256 2.90576 -1.56881 0.683696 3.09186 -1.56362 0.485667 3.12904 -1.53163 -0.26728 3.15518 -1.54545 0.234121 3.15781 -0.307666 12.0825 -1.47413 0.0961722 22.7977 -0.320883 -0.0 0.0 -0.0 -0.864421 20.442 1.12366 -21.6115 3.5511 66.2684 0.749354 -20.3653 0.134598 -25.614 -1.56671 2.84822 4.02136 -5.04502 25.8343 -0.0 0.0 -0.0 11.6147 18.8272 -23.1307 5.24414 37.2378 -52.9968 2.1981 47.4301 -0.965685 -54.4274 4.59898 -4.89419 -5.69178 -5.52768 37.8591 0.0 0.0 0.0 26.1549 3.97901 -6.81543 -3.45333 0.126701 0.514754 -20.7816 9.93034 3.12563 -14.5488 0.0 0.0 -0.0 0.0 -0.0 -20.3067 30.9553 5.02779 -15.6837 -0.322066 -2.37778 35.5468 -12.3569 4.48297 -14.7665 0.0 0.0 0.0 0.0 0.0 
1818.73 716.122 -1555.94 -5.41416 70.4171 3.57913 -1.49925 0.600481 3.0435 -1.49419 0.405692 3.0755 -1.46736 -0.328982 3.08464 -1.4806 0.162067 3.09789 1.72726 12.4978 -0.752824 2.21917 22.6575 0.149087 -0.0 0.0 -0.0 -1.33084 21.8604 0.655884 -21.4706 3.15506 65.865 0.863423 -23.1569 0.1769 -23.9547 -1.42783 2.6872 4.27145 -9.4504 25.637 -0.0 0.0 -0.0 11.4752 17.8934 -22.8685 2.48156 36.2342 -53.5609 2.32758 49.0582 -1.06228 -54.6571 4.62676 -4.90403 -5.34885 -6.4084 34.4163 0.0 0.0 0.0 23.4718 4.31459 -5.64301 -2.17797 0.0835291 0.323788 -20.3781 13.3754 3.07412 -14.3496 0.0 0.0 -0.0 0.0 -0.0 -20.7786 32.3695 5.0938 -16.914 -0.319614 -2.56653 31.5569 -12.8746 4.08166 -14.7786 0.0 0.0 0.0 0.0 0.0 
1794.0 715.667 -1556.88 -4.88816 70.7 3.01456 -1.42582 0.550781 2.93447 -1.4211 0.363021 2.96354 -1.39777 -0.340548 2.9662 -1.41003 0.131967 2.98275 2.98953 12.8395 -0.0167897 3.5185 22.4339 0.792081 -0.0 0.0 -0.0 -1.87579 22.5693 0.000682876 -20.7965 2.77921 65.5278 0.950442 -25.2116 0.212555 -23.1214 -1.35986 2.60486 4.46457 -12.1904 25.6985 -0.0 0.0 -0.0 11.4205 17.1809 -22.7828 -0.162447 35.3881 -54.5437 2.38982 49.8046 -1.10956 -55.3454 4.71022 -4.93286 -4.8069 -6.89184 29.8622 0.0 0.0 0.0 22.2829 4.04117 -5.72717 -2.18143 0.083652 0.324304 -20.2793 12.6598 3.05623 -14.8961 0.0 0.0 -0.0 0.0 -0.0 -21.4415 33.9068 5.65787 -21.4166 -0.276114 -3.25584 25.8951 -11.1671 3.4448 -14.1769 0.0 0.0 0.0 0.0 0.0 
1763.64 720.297 -1555.89 -4.48946 70.8942 2.4376 -1.404 0.540063 3.09081 -1.39875 0.34239 3.11888 -1.37517 -0.3958 3.11255 -1.38868 0.100487 3.13599 4.65518 13.7823 0.17864 5.32937 23.6001 0.796042 -0.0 0.0 -0.0 -2.08522 22.7204 -0.266118 -19.2462 1.63757 64.8574 0.960118 -25.436 0.216694 -21.349 -1.21934 2.42649 4.4969 -14.175 24.8996 -0.0 0.0 -0.0 11.3044 17.0293 -22.5269 -2.14453 34.6693 -55.2295 2.38608 49.7604 -1.10671 -55.1698 4.68889 -4.9256 -3.99022 -7.08439 23.7274 0.0 0.0 0.0 20.787 4.13328 -4.9381 -5.44374 0.185548 0.814536 -11.9123 13.9361 1.78758 -15.6675 0.0 0.0 -0.0 0.0 -0.0 -21.7589 35.0085 6.00613 -24.3291 -0.219186 -3.69911 19.5926 -9.52332 2.68234 -15.0303 0.0 0.0 0.0 0.0 0.0 
1746.07 714.993 -1551.23 -2.4175 70.6718 0.519381 -1.3635 0.706075 3.19946 -1.35795 0.501163 3.23785 -1.32411 -0.266093 3.26556 -1.3389 0.252698 3.26662 6.4818 14.3681 -0.385893 7.35128 24.7277 -0.137403 -0.0 0.0 -0.0 -2.10877 22.1067 -0.404155 -17.3689 0.718047 64.3473 0.967332 -25.6027 0.219802 -19.8875 -1.1077 2.27624 4.40692 -15.5729 23.499 -0.0 0.0 -0.0 11.1793 16.9308 -22.2485 -4.13306 34.0577 -55.7214 2.33636 49.1649 -1.06892 -54.6819 4.62976 -4.90509 -3.19142 -6.72297 18.3235 0.0 0.0 0.0 19.8736 4.17672 -4.39008 -7.53679 0.236151 1.13174 -4.23131 14.6736 0.628463 -16.1918 0.0 0.0 -0.0 0.0 -0.0 -21.9435 35.7442 6.2196 -25.4865 -0.190319 -3.87437 14.9162 -8.93892 2.08226 -17.0172 0.0 0.0 0.0 0.0 0.0 
